<?xml version="1.0" encoding="UTF-8"?><svg id="a" xmlns="http://www.w3.org/2000/svg" width="32" height="32" viewBox="0 0 32 32"><path d="M21.14,9.45c.3.17.67.19.98.05l4.27-2.23-4.84-2.71-4.46,2.54,4.05,2.35Z" style="fill:#253646; fill-rule:evenodd; stroke-width:0px;"/><path d="M31.35,19.67l-.45-.25-13.45,7.3c-1.17.63-2.58.62-3.73-.04L1.09,19.46l-.43.24c-.62.34-.84,1.12-.5,1.74.11.21.28.38.48.49l13.07,7.48c1.15.66,2.57.68,3.73.04l13.89-7.54c.62-.34.85-1.11.51-1.73-.11-.21-.29-.39-.5-.51Z" style="fill:#253646; fill-rule:evenodd; stroke-width:0px;"/><path d="M31.35,14.78l-.45-.25-13.45,7.3c-1.17.63-2.58.62-3.73-.04L1.09,14.57l-.43.24c-.62.34-.84,1.12-.5,1.74.11.21.28.38.48.49l13.07,7.48c1.15.66,2.57.68,3.73.04l13.89-7.54c.62-.34.85-1.11.51-1.73-.11-.21-.29-.39-.5-.51Z" style="fill:#253646; fill-rule:evenodd; stroke-width:0px;"/><path d="M.64,12.3l13.07,7.48c1.15.66,2.57.68,3.73.04l13.89-7.54c.62-.34.85-1.11.51-1.73l-.04-.06c-.11-.18-.27-.34-.46-.44l-3.83-2.14-4.84,2.53c-.66.34-1.44.33-2.08-.04l-4.46-2.58c-.12-.07-.23-.17-.3-.3l-.02-.04c-.19-.38-.05-.85.33-1.06l4.3-2.45-2.46-1.38c-1.16-.65-2.57-.65-3.72,0L.66,10.07c-.62.34-.84,1.12-.5,1.74.11.21.28.38.48.49ZM7,9.09c.14-.26.47-.36.73-.21l3.35,1.83c.26.14.36.47.21.73-.14.26-.47.36-.73.22l-3.35-1.83c-.26-.14-.36-.47-.21-.73ZM3.63,10.69c.14-.26.47-.36.73-.21l3.35,1.83c.26.14.36.47.21.73-.14.26-.47.36-.73.22l-3.35-1.83c-.26-.14-.36-.47-.21-.73Z" style="fill:#253646; fill-rule:evenodd; stroke-width:0px;"/></svg>