<?xml version="1.0" encoding="UTF-8"?><svg id="a" xmlns="http://www.w3.org/2000/svg" width="32" height="32" viewBox="0 0 32 32"><path d="M31.12,14.41l-3.62-2.96.22-.19c.09-.07.16-.16.22-.26.36-.55.2-1.29-.36-1.65l-10.36-6.67c-2.29-1.47-5.22-1.52-7.56-.13L.58,7.98c-.15.09-.28.21-.38.36-.37.55-.22,1.29.32,1.66l.72.48c.77-.26,1.66-.4,2.61-.4,2.9,0,5.25,1.37,5.25,3.06,0,.71-.42,1.37-1.11,1.89l4.88,3.29c.96-.62,2.35-1,3.89-1,2.9,0,5.25,1.37,5.25,3.06,0,1.06-.92,1.99-2.31,2.54l.2.14c-.61.64-1.79,1.08-3.14,1.08-1.49,0-2.77-.53-3.31-1.29-.18.25-.27.52-.27.8,0,1.15,1.6,2.09,3.58,2.09,1.33,0,2.48-.42,3.1-1.05l.24-.29c.16-.23.24-.49.24-.76,0-.11-.02-.22-.04-.33l.57.39c.77.52,1.78.54,2.58.06l7.4-4.52c.71-.43,1.14-1.21,1.14-2.04v-.94c0-.72-.32-1.4-.88-1.85ZM29.45,16.54l-.06.26c-.07.33-.28.61-.56.78l-1,.58c-.4.24-.91.22-1.29-.05l-3.41-2.38c-.14-.09-.17-.28-.07-.42.02-.03.05-.05.07-.07l2.3-1.6c.43-.3,1-.28,1.41.03l2.16,1.66c.37.28.54.75.44,1.2Z" style="fill:#253646; fill-rule:evenodd; stroke-width:0px;"/><path d="M3.86,11.05c-1.98,0-3.58.94-3.58,2.09s1.6,2.09,3.58,2.09,3.58-.94,3.58-2.09-1.6-2.09-3.58-2.09Z" style="fill:#253646; fill-rule:evenodd; stroke-width:0px;"/><path d="M16.76,22.46c1.98,0,3.58-.94,3.58-2.09s-1.6-2.09-3.58-2.09-3.58.94-3.58,2.09,1.6,2.09,3.58,2.09Z" style="fill:#253646; fill-rule:evenodd; stroke-width:0px;"/><path d="M3.86,16.9c-1.49,0-2.77-.53-3.31-1.29-.18.25-.27.52-.27.8,0,1.15,1.6,2.09,3.58,2.09s3.58-.94,3.58-2.09c0-.29-.1-.56-.27-.8-.54.76-1.82,1.29-3.31,1.29Z" style="fill:#253646; fill-rule:evenodd; stroke-width:0px;"/><path d="M3.86,19.97c-1.49,0-2.77-.53-3.31-1.29-.18.25-.27.52-.27.8,0,1.15,1.6,2.09,3.58,2.09s3.58-.94,3.58-2.09c0-.28-.1-.56-.27-.8-.54.76-1.82,1.29-3.31,1.29Z" style="fill:#253646; fill-rule:evenodd; stroke-width:0px;"/><path d="M30.86,20.91l-7.4,4.52c-.75.46-1.69.46-2.45.02-.25.2-.55.39-.88.55l-.34.24c-.64.58-1.75.96-3.02.96-1.49,0-2.77-.53-3.31-1.29-.18.25-.27.52-.27.8,0,1.15,1.6,2.09,3.58,2.09,1.33,0,2.48-.42,3.1-1.05l.24-.29c.16-.23.24-.49.24-.76v-.11s.53.36.53.36c.77.52,1.78.54,2.58.06l7.4-4.52c.71-.43,1.14-1.21,1.14-2.04v-.94c0-.11,0-.22-.02-.33-.1.7-.51,1.33-1.12,1.7Z" style="fill:#253646; fill-rule:evenodd; stroke-width:0px;"/><path d="M30.96,23.92l-5.67,3.46s-1.8,1.17-2.31,1.34c-1.19.39-1.95-.2-1.95-.2-.53.42-1.31.74-1.31.74l1.45.92c1.44.61,2.58-.26,2.58-.26l7.07-4.31c.79-.5,1.18-1.32,1.18-2.04,0-.68,0-1.29,0-1.29-.18,1.13-1.04,1.64-1.04,1.64Z" style="fill:#253646; fill-rule:evenodd; stroke-width:0px;"/></svg>